<?xml version="1.0" encoding="UTF-8" standalone="no"?>
<!-- Created with Inkscape (http://www.inkscape.org/) -->

<svg
   xmlns:dc="http://purl.org/dc/elements/1.1/"
   xmlns:cc="http://creativecommons.org/ns#"
   xmlns:rdf="http://www.w3.org/1999/02/22-rdf-syntax-ns#"
   xmlns:svg="http://www.w3.org/2000/svg"
   xmlns="http://www.w3.org/2000/svg"
   xmlns:sodipodi="http://sodipodi.sourceforge.net/DTD/sodipodi-0.dtd"
   xmlns:inkscape="http://www.inkscape.org/namespaces/inkscape"
   id="svg2"
   version="1.1"
   inkscape:version="0.92.1 r"
   xml:space="preserve"
   width="470.12308"
   height="339.13855"
   viewBox="0 0 440.74039 317.94238"
   sodipodi:docname="funding.svg"><metadata
     id="metadata8"><rdf:RDF><cc:Work
         rdf:about=""><dc:format>image/svg+xml</dc:format><dc:type
           rdf:resource="http://purl.org/dc/dcmitype/StillImage" /><dc:title /></cc:Work></rdf:RDF></metadata><defs
     id="defs6"><clipPath
       clipPathUnits="userSpaceOnUse"
       id="clipPath18"><path
         d="m 0,6.57813 h 3090 v 690 H 0 Z"
         id="path20"
         inkscape:connector-curvature="0" /></clipPath><clipPath
       clipPathUnits="userSpaceOnUse"
       id="clipPath586"><path
         d="m 2431,16 v 681 h 649 V 16 Z"
         id="path588"
         inkscape:connector-curvature="0" /></clipPath><clipPath
       clipPathUnits="userSpaceOnUse"
       id="clipPath598"><path
         d="m 0,6.57813 h 3090 v 690 H 0 Z"
         id="path600"
         inkscape:connector-curvature="0" /></clipPath><clipPath
       id="clipPath7524"
       clipPathUnits="userSpaceOnUse"><path
         inkscape:connector-curvature="0"
         id="path7526"
         d="m 1182,408 v 233 h 212 V 408 Z" /></clipPath><clipPath
       id="clipPath7538"
       clipPathUnits="userSpaceOnUse"><path
         style="clip-rule:evenodd"
         inkscape:connector-curvature="0"
         id="path7540"
         d="m 465.121,386.609 c -1.891,5.039 -3.601,9.903 -5.672,14.852 -1.078,0.719 -2.16,1.437 -3.148,2.07 0.988,2.43 0.988,2.43 3.418,3.508 2.429,8.461 2.429,8.461 5.043,23.672 -0.364,4.859 -0.992,9.898 -1.891,15.027 -3.422,-2.066 -7.293,-4.136 -11.25,-6.75 -2.43,-2.789 -4.859,-5.488 -7.742,-8.636 -0.719,-2.25 -1.801,-4.321 -2.789,-6.75 v -9.454 c 2.789,-9.898 2.789,-9.898 3.961,-10.617 -5.313,-0.269 -5.313,-0.269 -18.36,-3.961 -0.632,0.36 -1.89,0.719 -2.882,1.532 -1.438,8.007 -2.789,16.468 -4.137,24.929 7.019,1.707 7.019,1.707 18.629,7.828 40.14,31.59 40.14,31.59 42.211,31.95 2.609,5.043 4.679,8.82 7.468,14.222 0.989,3.418 1.532,6.391 0.989,9.809 -1.348,3.332 -3.149,6.211 -5.399,8.281 -0.09,0.09 -0.179,0.09 -0.269,0.18 h -16.563 c -0.179,-0.09 -0.269,-0.27 -0.449,-0.36 -0.269,-0.992 -1.711,-3.781 -2.07,-5.132 2.793,-12.329 5.582,-0.899 6.75,-0.18 5.582,3.422 6.39,-1.527 6.75,-3.328 -0.36,-1.891 -2.789,-4.321 -5.848,-5.492 -5.043,-0.719 -5.851,0.363 -8.461,2.25 -0.359,0.722 -0.898,1.711 -1.621,2.793 -0.449,3.058 -0.449,4.589 0.359,7.558 0.454,0.719 0.903,1.352 1.352,1.891 h -21.238 v 51.66 h 39.777 c -13.68,7.918 -28.168,14.937 -43.559,21.328 22.141,0.18 33.032,0.359 54.09,-0.719 7.2,-6.929 14.942,-13.679 22.68,-20.609 h 14.219 c -5.938,7.379 -11.969,14.758 -17.821,22.051 9,0.629 17.102,0.449 26.102,0.449 0.629,0 11.43,-0.09 12.422,-0.449 1.887,-4.141 6.93,-10.621 6.93,-15.032 -1.981,0 -3.872,0 -5.672,0 -6.84,0 -12.692,0.09 -19.078,-2.25 0.808,-1.351 1.707,-2.968 2.789,-4.769 H 643.32 v -51.66 h -86.398 c 1.078,-2.52 1.976,-5.039 2.789,-7.742 -0.359,-1.079 -0.723,-2.071 -0.723,-3.508 -3.418,3.871 -6.84,7.648 -10.347,11.25 h -61.2 c 1.707,-2.34 3.329,-5.223 4.321,-8.821 0,-5.039 0,-5.039 -2.434,-13.14 -2.43,-4.86 -5.219,-9.809 -8.098,-15.031 -0.718,-18.629 -1.441,-37.348 -2.429,-56.34 2.699,-3.867 2.699,-3.867 7.019,-7.11 -13.14,-11.609 -13.14,-11.609 -17.91,-14.039 -0.719,0.719 -1.801,1.801 -2.789,2.789" /></clipPath><clipPath
       id="clipPath19921"
       clipPathUnits="userSpaceOnUse"><path
         style="clip-rule:evenodd"
         inkscape:connector-curvature="0"
         id="path19923"
         d="M 9.85156,2141.64 H 7859.85 V 1.64453 H 9.85156 Z" /></clipPath></defs><sodipodi:namedview
     pagecolor="#ffffff"
     bordercolor="#666666"
     borderopacity="1"
     objecttolerance="10"
     gridtolerance="10"
     guidetolerance="10"
     inkscape:pageopacity="0"
     inkscape:pageshadow="2"
     inkscape:window-width="2560"
     inkscape:window-height="1311"
     id="namedview4"
     showgrid="false"
     inkscape:zoom="1.4283557"
     inkscape:cx="201.84576"
     inkscape:cy="14.521444"
     inkscape:window-x="0"
     inkscape:window-y="55"
     inkscape:window-maximized="1"
     inkscape:current-layer="g10"
     fit-margin-top="0"
     fit-margin-left="0"
     fit-margin-right="0"
     fit-margin-bottom="0"
     showguides="true"
     inkscape:guide-bbox="true"><sodipodi:guide
       position="441.72295,339.98884"
       orientation="0,1"
       id="guide4796"
       inkscape:locked="false" /><sodipodi:guide
       position="81.180203,290.59281"
       orientation="0,1"
       id="guide4798"
       inkscape:locked="false" /><sodipodi:guide
       position="68.247072,241.16978"
       orientation="0,1"
       id="guide4800"
       inkscape:locked="false" /><sodipodi:guide
       position="-25.518126,233.77942"
       orientation="1,0"
       id="guide4802"
       inkscape:locked="false" /><sodipodi:guide
       position="174.48351,176.04223"
       orientation="1,0"
       id="guide4804"
       inkscape:locked="false" /><sodipodi:guide
       position="374.48513,180.6612"
       orientation="1,0"
       id="guide4806"
       inkscape:locked="false" /></sodipodi:namedview><g
     id="g10"
     inkscape:groupmode="layer"
     inkscape:label="ink_ext_XXXXXX"
     transform="matrix(1.25,0,0,-1.25,-24.041653,255.83589)"><g
       id="g594"
       transform="matrix(0.08826142,0,0,0.08826142,20.098986,24.574504)"><g
         clip-path="url(#clipPath598)"
         id="g596"><g
           transform="scale(10)"
           id="g602"><text
             id="text604"
             style="font-variant:normal;font-weight:normal;font-size:17.60000038px;line-height:0%;font-family:'DejaVu Sans';-inkscape-font-specification:DejaVuSans;writing-mode:lr-tb;fill:#000000;fill-opacity:1;fill-rule:nonzero;stroke:none"
             transform="matrix(1,0,0,-1,216.926,27.6715)"><tspan
               id="tspan606"
               y="0"
               x="0" /></text>
</g></g></g><text
       xml:space="preserve"
       style="font-style:normal;font-weight:normal;line-height:0%;font-family:sans-serif;letter-spacing:0px;word-spacing:0px;fill:#000000;fill-opacity:1;stroke:none;stroke-width:1px;stroke-linecap:butt;stroke-linejoin:miter;stroke-opacity:1"
       x="4.4806767"
       y="-66.650063"
       id="text20046"
       transform="scale(1,-1)"><tspan
         sodipodi:role="line"
         id="tspan20048"
         x="4.4806767"
         y="-66.650063"
         style="font-size:16px;line-height:1.25;font-family:sans-serif"> </tspan></text>
<text
       xml:space="preserve"
       style="font-style:normal;font-weight:normal;line-height:0%;font-family:sans-serif;letter-spacing:0px;word-spacing:0px;fill:#000000;fill-opacity:1;stroke:none;stroke-width:1px;stroke-linecap:butt;stroke-linejoin:miter;stroke-opacity:1"
       x="88.277473"
       y="-55.2621"
       id="text20058"
       transform="scale(1,-1)"><tspan
         sodipodi:role="line"
         id="tspan20060"
         x="88.277473"
         y="-55.2621"
         style="font-style:normal;font-variant:normal;font-weight:bold;font-stretch:normal;font-size:14.12182713px;line-height:1.25;font-family:sans-serif;-inkscape-font-specification:'Sans Bold'">Thank you for your attention!</tspan></text>
<text
       xml:space="preserve"
       style="font-style:normal;font-weight:normal;font-size:9.375px;line-height:18.75px;font-family:sans-serif;letter-spacing:0px;word-spacing:0px;fill:#000000;fill-opacity:1;stroke:none;stroke-width:0.75px;stroke-linecap:butt;stroke-linejoin:miter;stroke-opacity:1"
       x="28.68475"
       y="-191.85127"
       id="text1611"
       transform="scale(1,-1)"><tspan
         sodipodi:role="line"
         x="28.68475"
         y="-191.85127"
         style="stroke-width:0.75px"
         id="tspan1619">Jörg Fallmann, Dilmurat Yusuf, Sebastian Will,</tspan><tspan
         sodipodi:role="line"
         x="28.68475"
         y="-173.10127"
         style="stroke-width:0.75px"
         id="tspan1633">Anika Erxleben, Torsten Houwaart, Bérénice Batut, Pavankumar Videm,</tspan><tspan
         sodipodi:role="line"
         x="28.68475"
         y="-154.35127"
         style="stroke-width:0.75px"
         id="tspan1643">Andrea Bagnacani, Markus Wolfien, Steffen C. Lott, Youri Hoogstrate,</tspan><tspan
         sodipodi:role="line"
         x="28.68475"
         y="-135.60127"
         style="stroke-width:0.75px"
         id="tspan1649">Wolfgang R. Hess, Olaf Wolkenhauer, Steve Hoffmann, Altuna Akalin,</tspan><tspan
         sodipodi:role="line"
         x="28.68475"
         y="-116.85127"
         style="stroke-width:0.75px"
         id="tspan1703">Uwe Ohler, Peter F. Stadler, Rolf Backofen</tspan></text>
<text
       xml:space="preserve"
       style="font-style:normal;font-weight:normal;font-size:9.375px;line-height:18.75px;font-family:sans-serif;letter-spacing:0px;word-spacing:0px;fill:#000000;fill-opacity:1;stroke:none;stroke-width:0.75px;stroke-linecap:butt;stroke-linejoin:miter;stroke-opacity:1"
       x="48.112682"
       y="-23.825901"
       id="text4820"
       transform="scale(1,-1)"><tspan
         sodipodi:role="line"
         id="tspan4818"
         x="48.112682"
         y="-12.015598"
         style="stroke-width:0.75px" /></text>
<text
       xml:space="preserve"
       style="font-style:normal;font-weight:normal;font-size:9.375px;line-height:18.75px;font-family:sans-serif;letter-spacing:0px;word-spacing:0px;fill:#000000;fill-opacity:1;stroke:none;stroke-width:0.75px;stroke-linecap:butt;stroke-linejoin:miter;stroke-opacity:1"
       x="23.587605"
       y="-18.19733"
       id="text4519"
       transform="scale(1,-1)"><tspan
         sodipodi:role="line"
         x="23.587605"
         y="-18.19733"
         style="stroke-width:0.75px"
         id="tspan4527">The RNA workbench: best practices for RNA</tspan><tspan
         sodipodi:role="line"
         x="23.587605"
         y="0.55266953"
         style="stroke-width:0.75px"
         id="tspan4537">and high-throughput sequencing bioinformatics in Galaxy.</tspan><tspan
         sodipodi:role="line"
         x="23.587605"
         y="19.30267"
         style="stroke-width:0.75px"
         id="tspan4529">Nucleic Acids Res 2017 gkx409.</tspan><tspan
         sodipodi:role="line"
         x="23.587605"
         y="38.05267"
         style="stroke-width:0.75px"
         id="tspan4521">doi: 10.1093/nar/gkx409</tspan></text>
</g></svg>